<?xml version="1.0" encoding="UTF-8"?>
<svg width="24px" height="25px" viewBox="0 0 24 25" version="1.1" xmlns="http://www.w3.org/2000/svg" xmlns:xlink="http://www.w3.org/1999/xlink">
    <title>AA85DD8F-CF4B-41C9-A262-1C13BE30DBFF@2x</title>
    <defs>
        <linearGradient x1="50%" y1="0%" x2="50%" y2="100%" id="linearGradient-1">
            <stop stop-color="#83469B" offset="0%"></stop>
            <stop stop-color="#4DC2F0" offset="100%"></stop>
        </linearGradient>
        <path d="M1.14285714,8.41142857 L11.4285714,14.3542857 C11.7821727,14.5584375 12.2178273,14.5584375 12.5714195,14.3542857 L22.8571429,8.41142857 C23.2086223,8.20851166 23.4261218,7.83441264 23.4285805,7.42857143 C23.4301989,7.01864599 23.2121534,6.63924682 22.8571429,6.43428571 L12.5714195,0.502857143 C12.2178273,0.298705377 11.7821727,0.298705377 11.4285714,0.502857143 L1.14285714,6.43428571 C0.787846637,6.63924682 0.569801136,7.01864599 0.571419525,7.42857143 C0.573878241,7.83441264 0.791377673,8.20851166 1.14285714,8.41142857 Z M12,2.85714286 L20,7.42857143 L12,12 L4,7.42857143 L12,2.85714286 Z M21.7142857,11.0514286 L12,16.5714286 L2.28571429,11.0057143 C2.02225859,10.8530914 1.70879281,10.8119043 1.41485296,10.8912895 C1.12091312,10.9706748 0.870801394,11.1640689 0.72,11.4285714 C0.409841938,11.9748333 0.598701238,12.6690189 1.14285714,12.9828571 L11.4285714,18.9257143 C11.7821727,19.1298661 12.2178273,19.1298661 12.5714286,18.9257143 L22.8571429,12.9828571 C23.4012988,12.6690189 23.5901581,11.9748333 23.28,11.4285714 C23.1291986,11.1640689 22.8790869,10.9706748 22.585147,10.8912895 C22.2912072,10.8119043 21.9777414,10.8530914 21.7142857,11.0057143 L21.7142857,11.0514286 Z M21.7142857,15.6228571 L12,21.1428571 L2.28571429,15.5771429 C2.02225859,15.42452 1.70879281,15.3833329 1.41485296,15.4627181 C1.12091312,15.5421033 0.870801394,15.7354975 0.72,16 C0.409841938,16.5462619 0.598701238,17.2404475 1.14285714,17.5542857 L11.4285714,23.4971429 C11.7821727,23.7012946 12.2178273,23.7012946 12.5714286,23.4971429 L22.8571429,17.5542857 C23.4012988,17.2404475 23.5901581,16.5462619 23.28,16 C23.1291986,15.7354975 22.8790869,15.5421033 22.585147,15.4627181 C22.2912072,15.3833329 21.9777414,15.42452 21.7142857,15.5771429 L21.7142857,15.6228571 Z" id="path-2"></path>
    </defs>
    <g id="Templates" stroke="none" stroke-width="1" fill="none" fill-rule="evenodd">
        <g id="Template-Dashboard-" transform="translate(-20.000000, -359.000000)">
            <g id="Shape" transform="translate(20.000000, 359.320000)">
                <use fill="#83469B" xlink:href="#path-2"></use>
                <use fill="url(#linearGradient-1)" xlink:href="#path-2"></use>
            </g>
        </g>
    </g>
</svg>