<svg id="sideBySide" viewBox="0 0 24 25" version="1.1" xmlns="http://www.w3.org/2000/svg" xmlns:xlink="http://www.w3.org/1999/xlink"><path d="M22,6.94 C21.9895837,6.8481349 21.9694716,6.75763058 21.94,6.67 L21.94,6.58 C21.8919189,6.47717975 21.8277838,6.38266483 21.75,6.3 L21.75,6.3 L15.75,0.3 L15.75,0.3 C15.6673352,0.222216205 15.5728202,0.158081081 15.47,0.11 L15.38,0.11 C15.2784148,0.0517413546 15.1662233,0.0143442038 15.05,0 L9,0 C7.34314575,0 6,1.34314575 6,3 L6,17 C6,18.6568542 7.34314575,20 9,20 L19,20 C20.6568542,20 22,18.6568542 22,17 L22,7 C22,7 22,7 22,6.94 Z M3,8 C3.55228475,8 4,8.44771525 4,9 L4,9 L4,19 C4,20.6568542 5.34314575,22 7,22 L7,22 L15,22 C15.5522847,22 16,22.4477153 16,23 C16,23.5522847 15.5522847,24 15,24 L15,24 L7,24 C4.23857625,24 2,21.7614237 2,19 L2,19 L2,9 C2,8.44771525 2.44771525,8 3,8 Z M16,3.41 L18.59,6 L17,6 C16.4477153,6 16,5.55228475 16,5 L16,3.41 Z M20,17 C20,17.5522847 19.5522847,18 19,18 L9,18 C8.44771525,18 8,17.5522847 8,17 L8,3 C8,2.44771525 8.44771525,2 9,2 L14,2 L14,5 C14,6.65685425 15.3431458,8 17,8 L20,8 L20,17 Z"></path></svg>