<svg id="inspect" fill="currentColor" viewBox="0 0 24 23" version="1.1" xmlns="http://www.w3.org/2000/svg" xmlns:xlink="http://www.w3.org/1999/xlink"> <path d="M20.3532044,15.093551 C19.7046169,15.0968916 19.0730342,15.3013558 18.5455179,15.678759 L15.9854995,14.1634884 C16.1062891,13.7885227 16.1697,13.3974481 16.1735824,13.0035226 C16.16741,11.1024777 14.8793656,9.4450214 13.038866,8.96976769 L13.038866,6.54533469 C14.4782721,6.03637483 15.341704,4.56433652 15.0835325,3.0594462 C14.825361,1.55455588 13.5206812,0.454545455 11.9939605,0.454545455 C10.4672397,0.454545455 9.1625599,1.55455588 8.90438841,3.0594462 C8.64621691,4.56433652 9.50964886,6.03637483 10.949055,6.54533469 L10.949055,8.96976769 C9.10855536,9.4450214 7.82051094,11.1024777 7.81433848,13.0035226 C7.8182209,13.3974481 7.8816318,13.7885227 8.00242147,14.1634884 L5.442403,15.678759 C4.91488677,15.3013558 4.28330399,15.0968916 3.63471649,15.093551 C1.90346038,15.093551 0.5,16.4971574 0.5,18.2285937 C0.5,19.96003 1.90346038,21.3636364 3.63471649,21.3636364 C5.3659726,21.3636364 6.76943298,19.96003 6.76943298,18.2285937 C6.76556857,17.9455397 6.72338898,17.6643131 6.64404432,17.3925823 L9.04732696,15.9609128 C10.6775361,17.5816195 13.3103848,17.5816195 14.940594,15.9609128 L17.3438766,17.3925823 C16.984854,18.6903372 17.494539,20.0724314 18.6101409,20.8262651 C19.7257428,21.5800988 21.198065,21.5372852 22.2679869,20.7198987 C23.3379089,19.9025122 23.7664376,18.4931357 23.3326262,17.2184356 C22.8988149,15.9437355 21.6995657,15.0884467 20.3532044,15.093551 L20.3532044,15.093551 Z M3.63636364,19.2727273 C3.05897503,19.2727273 2.59090909,18.8046613 2.59090909,18.2272727 C2.59090909,17.6498841 3.05897503,17.1818182 3.63636364,17.1818182 C4.21375224,17.1818182 4.68181818,17.6498841 4.68181818,18.2272727 C4.68181818,18.8046613 4.21375224,19.2727273 3.63636364,19.2727273 Z M12,2.54545455 C12.5773886,2.54545455 13.0454545,3.01352049 13.0454545,3.59090909 C13.0454545,4.16829769 12.5773886,4.63636364 12,4.63636364 C11.4226114,4.63636364 10.9545455,4.16829769 10.9545455,3.59090909 C10.9545455,3.01352049 11.4226114,2.54545455 12,2.54545455 Z M12,15.0909091 C10.8452228,15.0909091 9.90909091,14.1547772 9.90909091,13 C9.90909091,11.8452228 10.8452228,10.9090909 12,10.9090909 C13.1547772,10.9090909 14.0909091,11.8452228 14.0909091,13 C14.0909091,14.1547772 13.1547772,15.0909091 12,15.0909091 Z M20.3636364,19.2727273 C19.7862478,19.2727273 19.3181818,18.8046613 19.3181818,18.2272727 C19.3181818,17.6498841 19.7862478,17.1818182 20.3636364,17.1818182 C20.941025,17.1818182 21.4090909,17.6498841 21.4090909,18.2272727 C21.4090909,18.8046613 20.941025,19.2727273 20.3636364,19.2727273 Z" id="Shape"></path></svg>
