<svg id="close" fill="currentColor" viewBox="0 0 25 24" version="1.1" xmlns="http://www.w3.org/2000/svg" xmlns:xlink="http://www.w3.org/1999/xlink"><path d="M20.9912303,3.66501104 C20.5557206,3.2394001 19.9628863,3 19.3444417,3 C18.7259972,3 18.1331629,3.2394001 17.6976532,3.66501104 L12.3861802,8.83584963 L7.0747073,3.66501104 C6.16521109,2.78344568 4.69062644,2.78344571 3.78113027,3.6650111 C2.87163409,4.54657649 2.87163406,5.97587639 3.7811302,6.85744182 L9.11579734,12.0057985 L3.7811302,17.1541552 C3.34203456,17.5762903 3.0950495,18.1509185 3.0950495,18.7503706 C3.0950495,19.3498226 3.34203456,19.9244508 3.7811302,20.346586 C4.2166399,20.7721969 4.80947419,21.011597 5.42791875,21.011597 C6.04636332,21.011597 6.6391976,20.7721969 7.0747073,20.346586 L12.3861802,15.1757474 L17.6976532,20.346586 C18.1331629,20.7721969 18.7259972,21.011597 19.3444417,21.011597 C19.9628863,21.011597 20.5557206,20.7721969 20.9912303,20.346586 C21.4303259,19.9244508 21.677311,19.3498226 21.677311,18.7503706 C21.677311,18.1509185 21.4303259,17.5762903 20.9912303,17.1541552 L15.6565631,12.0057985 L20.9912303,6.85744182 C21.4303259,6.4353067 21.677311,5.86067846 21.677311,5.26122643 C21.677311,4.6617744 21.4303259,4.08714616 20.9912303,3.66501104 Z" id="path-close"></path></svg>
