<svg id="search" viewBox="0 0 25 24" version="1.1" xmlns="http://www.w3.org/2000/svg" xmlns:xlink="http://www.w3.org/1999/xlink"><path d="M22.4073092,20.3139246 L18.5820418,16.6333199 C21.6651599,12.9043519 21.205879,7.48809022 17.5360425,4.29793709 C13.866206,1.10778397 8.26582109,1.25643711 4.78132423,4.63649041 C1.29682737,8.01654372 1.14358085,13.449064 4.43230962,17.0089016 C7.72103839,20.5687392 13.3046624,21.0142537 17.1488554,18.0235483 L20.9431907,21.7041531 C21.1367911,21.8934968 21.4003282,22 21.67525,22 C21.9501718,22 22.2137088,21.8934968 22.4073092,21.7041531 C22.7936032,21.3164928 22.7936032,20.7015849 22.4073092,20.3139246 Z M11.3485149,18 C7.36003469,18 4.12673267,14.8659932 4.12673267,11 C4.12673267,7.13400675 7.36003469,4 11.3485149,4 C15.336995,4 18.570297,7.13400675 18.570297,11 C18.570297,12.8565154 17.8094329,14.6369928 16.455086,15.9497475 C15.1007391,17.2625021 13.2638506,18 11.3485149,18 Z" id="path-search"></path></svg>
