<?xml version="1.0" encoding="UTF-8"?>
<svg width="26px" height="24px" viewBox="0 0 26 24" version="1.1" xmlns="http://www.w3.org/2000/svg" xmlns:xlink="http://www.w3.org/1999/xlink">
    <title>9B2C9AAF-8FA9-4DA4-AC59-F28A06F55407@2x</title>
    <defs>
        <path d="M16.0323564,11.29 L10.1930297,5.64 C9.99931406,5.45068735 9.73562011,5.34420168 9.46053465,5.34420168 C9.1854492,5.34420168 8.92175524,5.45068735 8.7280396,5.64 C8.3280317,6.03003745 8.3280317,6.65996255 8.7280396,7.05 L13.8348713,12.05 L8.7280396,17 C8.3280317,17.3900375 8.3280317,18.0199625 8.7280396,18.41 C8.92103806,18.6008556 9.18482156,18.7088906 9.46053465,18.71 C9.73624775,18.7088906 10.0000313,18.6008556 10.1930297,18.41 L16.0323564,12.76 C16.2440694,12.5706844 16.3644892,12.3041989 16.3644892,12.025 C16.3644892,11.7458011 16.2440694,11.4793156 16.0323564,11.29 Z" id="path-1"></path>
    </defs>
    <g id="Templates" stroke="none" stroke-width="1" fill="none" fill-rule="evenodd">
        <g id="Template-Dashboard-" transform="translate(-1444.000000, -40.000000)">
            <g id="Group-8" transform="translate(641.000000, 24.000000)">
                <g id="Arrows/Simple/Big/Left" transform="translate(803.654455, 16.000000)">
                    <rect id="Rectangle-Copy-41" x="0" y="0" width="24.760396" height="24"></rect>
                    <mask id="mask-2" fill="white">
                        <use xlink:href="#path-1"></use>
                    </mask>
                    <use id="Path-Copy-6" fill="#000000" transform="translate(12.396261, 12.027101) scale(-1, 1) translate(-12.396261, -12.027101) " xlink:href="#path-1"></use>
                    <g id="Colors/Blue/Active" mask="url(#mask-2)" fill="#DDDDDD">
                        <rect id="Rectangle" x="0" y="0" width="24.760396" height="24"></rect>
                    </g>
                </g>
            </g>
        </g>
    </g>
</svg>