<?xml version="1.0" encoding="UTF-8"?>
<svg width="26px" height="24px" viewBox="0 0 26 24" version="1.1" xmlns="http://www.w3.org/2000/svg" xmlns:xlink="http://www.w3.org/1999/xlink">
    <title>1A7A6555-9FA0-4500-A250-A88BF9EEB36D@2x</title>
    <g id="Templates" stroke="none" stroke-width="1" fill="none" fill-rule="evenodd">
        <g id="Template-Dashboard-" transform="translate(-938.000000, -193.000000)">
            <g id="Group-9" transform="translate(354.000000, 177.000000)">
                <g id="Group-4" transform="translate(345.381024, 0.000000)">
                    <g id="fullscreen-24px" transform="translate(239.109940, 16.000000)">
                        <polygon id="Path" points="0 0 24.5240964 0 24.5240964 24 0 24"></polygon>
                        <path d="M7.15286145,14 L5.10918675,14 L5.10918675,19 L10.2183735,19 L10.2183735,17 L7.15286145,17 L7.15286145,14 Z M5.10918675,10 L7.15286145,10 L7.15286145,7 L10.2183735,7 L10.2183735,5 L5.10918675,5 L5.10918675,10 Z M17.3712349,17 L14.3057229,17 L14.3057229,19 L19.4149096,19 L19.4149096,14 L17.3712349,14 L17.3712349,17 Z M14.3057229,5 L14.3057229,7 L17.3712349,7 L17.3712349,10 L19.4149096,10 L19.4149096,5 L14.3057229,5 Z" id="Shape" fill="#00A3E5" fill-rule="nonzero"></path>
                    </g>
                </g>
            </g>
        </g>
    </g>
</svg>