<?xml version="1.0" encoding="UTF-8"?>
<svg width="26px" height="24px" viewBox="0 0 26 24" version="1.1" xmlns="http://www.w3.org/2000/svg" xmlns:xlink="http://www.w3.org/1999/xlink">
    <title>FDAD9B97-5D40-4F07-9AD3-7A7C4BBF3DA4@2x</title>
    <g id="Templates" stroke="none" stroke-width="1" fill="none" fill-rule="evenodd">
        <g id="Template-Dashboard-" transform="translate(-897.000000, -193.000000)">
            <g id="Group-9" transform="translate(354.000000, 177.000000)">
                <g id="Group-4" transform="translate(345.381024, 0.000000)">
                    <g id="more_horiz-24px" transform="translate(198.236446, 16.000000)">
                        <polygon id="Path" points="0 0 24.5240964 0 24.5240964 24 0 24"></polygon>
                        <path d="M6.1310241,10 C5.00700301,10 4.0873494,10.9 4.0873494,12 C4.0873494,13.1 5.00700301,14 6.1310241,14 C7.25504518,14 8.1746988,13.1 8.1746988,12 C8.1746988,10.9 7.25504518,10 6.1310241,10 Z M18.3930723,10 C17.2690512,10 16.3493976,10.9 16.3493976,12 C16.3493976,13.1 17.2690512,14 18.3930723,14 C19.5170934,14 20.436747,13.1 20.436747,12 C20.436747,10.9 19.5170934,10 18.3930723,10 Z M12.2620482,10 C11.1380271,10 10.2183735,10.9 10.2183735,12 C10.2183735,13.1 11.1380271,14 12.2620482,14 C13.3860693,14 14.3057229,13.1 14.3057229,12 C14.3057229,10.9 13.3860693,10 12.2620482,10 Z" id="Shape" fill="#00A3E5" fill-rule="nonzero"></path>
                    </g>
                </g>
            </g>
        </g>
    </g>
</svg>