<?xml version="1.0" encoding="UTF-8"?>
<svg width="24px" height="24px" viewBox="0 0 24 24" version="1.1" xmlns="http://www.w3.org/2000/svg" xmlns:xlink="http://www.w3.org/1999/xlink">
    <title>Actions/Default/Cloud-filled/Clouds</title>
    <g id="Actions/Default/Cloud-filled/Clouds" stroke="none" stroke-width="1" fill="none" fill-rule="evenodd">
        <rect id="Rectangle-Copy-709" x="0" y="0" width="24" height="24"></rect>
        <path d="M19.47,10.54 C18.5019812,8.38654594 16.3610218,7.00098902 14,7 C13.5311073,7.00378589 13.0643904,7.06422405 12.61,7.18 C11.4462101,5.53725129 9.4107051,4.7527154 7.44543174,5.18944281 C5.48015838,5.62617023 3.96850432,7.19896369 3.61,9.18 C2.26069611,9.66576069 1.44387228,11.0385456 1.66065308,12.4561458 C1.87743388,13.8737461 3.06718938,14.9396829 4.5,15 L5.5,15 C5.48957314,15.1665036 5.48957314,15.3334964 5.5,15.5 C5.5,17.4329966 7.06700338,19 9,19 L18.17,19 C20.3071629,18.9996205 22.1244018,17.4400165 22.4489976,15.3276474 C22.7735933,13.2152783 21.5084488,11.1820219 19.47,10.54 L19.47,10.54 Z M4.5,13 C3.94771525,13 3.5,12.5522847 3.5,12 C3.5,11.4477153 3.94771525,11 4.5,11 C5.05228475,11 5.5,10.5522847 5.5,10 C5.5,8.34314575 6.84314575,7 8.5,7 C9.34808319,7.00455333 10.1546153,7.36785607 10.72,8 C9.28456792,8.93397038 8.3166392,10.4368071 8.06,12.13 C7.49477035,12.2891887 6.97884566,12.5884251 6.56,13 L4.5,13 Z" id="Shape" fill-opacity="0.85" fill="#000000"></path>
    </g>
</svg>