<?xml version="1.0" encoding="UTF-8"?>
<svg width="24px" height="24px" viewBox="0 0 24 24" version="1.1" xmlns="http://www.w3.org/2000/svg" xmlns:xlink="http://www.w3.org/1999/xlink">
    <title>Actions/Default/File-filled/File-cancel</title>
    <g id="Actions/Default/File-filled/File-cancel" stroke="none" stroke-width="1" fill="none" fill-rule="evenodd">
        <rect id="Rectangle-Copy-38" x="0" y="0" width="24" height="24"></rect>
        <path d="M14.71,12.29 C14.5222334,12.1006873 14.2666375,11.9942017 14,11.9942017 C13.7333625,11.9942017 13.4777666,12.1006873 13.29,12.29 L12,13.59 L10.71,12.29 C10.3178778,11.8978778 9.68212218,11.8978778 9.29000001,12.29 C8.89787784,12.6821222 8.89787784,13.3178778 9.29,13.71 L10.59,15 L9.29,16.29 C9.10068735,16.4777666 8.99420168,16.7333625 8.99420168,17 C8.99420168,17.2666375 9.10068735,17.5222334 9.29,17.71 C9.4777666,17.8993127 9.73336246,18.0057983 10,18.0057983 C10.2666375,18.0057983 10.5222334,17.8993127 10.71,17.71 L12,16.41 L13.29,17.71 C13.4777666,17.8993127 13.7333625,18.0057983 14,18.0057983 C14.2666375,18.0057983 14.5222334,17.8993127 14.71,17.71 C14.8993127,17.5222334 15.0057983,17.2666375 15.0057983,17 C15.0057983,16.7333625 14.8993127,16.4777666 14.71,16.29 L13.41,15 L14.71,13.71 C14.8993127,13.5222334 15.0057983,13.2666375 15.0057983,13 C15.0057983,12.7333625 14.8993127,12.4777666 14.71,12.29 Z M20,8.94 C20.013807,8.7053841 19.9131532,8.47339126 19.75,8.3 L13.75,2.3 C13.6673352,2.22221621 13.4534771,2 13.06,2 L7,2 C5.34314575,2 4,3.34314575 4,5 L4,19 C4,20.6568542 5.34314575,22 7,22 L17,22 C18.6568542,22 20,20.6568542 20,19 L20,9 C20,9 20,9 20,8.94 Z" id="Shape-Copy-16" fill-opacity="0.85" fill="#000000"></path>
    </g>
</svg>
