<?xml version="1.0" encoding="UTF-8"?>
<svg width="24px" height="24px" viewBox="0 0 24 24" version="1.1" xmlns="http://www.w3.org/2000/svg" xmlns:xlink="http://www.w3.org/1999/xlink">
    <title>Arrows/Custom/Dual/Left-right-outside</title>
    <g id="Arrows/Custom/Dual/Left-right-outside" stroke="none" stroke-width="1" fill="none" fill-rule="evenodd">
        <rect id="Rectangle-Copy-162" x="0" y="0" width="24" height="24"></rect>
        <path d="M6.82421356,5.41421357 L8.41421356,5.41421357 C8.96649831,5.41421357 9.41421356,4.96649832 9.41421356,4.41421357 C9.41421356,3.86192882 8.96649831,3.41421357 8.41421356,3.41421357 L4.41421356,3.41421357 C4.2835363,3.41579355 4.15443587,3.44297259 4.03421356,3.49421357 C3.78986424,3.59568849 3.59568848,3.78986425 3.49421356,4.03421357 C3.44297259,4.15443588 3.41579355,4.28353631 3.41421356,4.41421357 L3.41421356,8.41421357 C3.41421356,8.96649832 3.86192881,9.41421357 4.41421356,9.41421357 C4.96649831,9.41421357 5.41421356,8.96649832 5.41421356,8.41421357 L5.41421356,6.82421357 L9.29508142,10.7150814 C9.48284801,10.9043941 9.73844388,11.0108797 10.0050814,11.0108797 C10.271719,11.0108797 10.5273148,10.9043941 10.7150814,10.7150814 C10.9043941,10.5273148 11.0108797,10.271719 11.0108797,10.0050814 C11.0108797,9.73844388 10.9043941,9.48284802 10.7150814,9.29508142 L6.82421356,5.41421357 Z M19.5857864,14.5857864 C19.0335017,14.5857864 18.5857864,15.0335017 18.5857864,15.5857864 L18.5857864,17.1757864 L14.7146859,13.2946859 C14.3225637,12.9025637 13.6868081,12.9025638 13.2946859,13.2946859 C12.9025638,13.6868081 12.9025637,14.3225637 13.2946859,14.7146859 L17.1757864,18.5857864 L15.5857864,18.5857864 C15.0335017,18.5857864 14.5857864,19.0335017 14.5857864,19.5857864 C14.5857864,20.1380712 15.0335017,20.5857864 15.5857864,20.5857864 L19.5857864,20.5857864 C19.7164637,20.5842065 19.8455641,20.5570274 19.9657864,20.5057864 C20.2101358,20.4043115 20.4043115,20.2101358 20.5057864,19.9657864 C20.5570274,19.8455641 20.5842064,19.7164637 20.5857864,19.5857864 L20.5857864,15.5857864 C20.5857864,15.0335017 20.1380712,14.5857864 19.5857864,14.5857864 Z" id="Shape" fill-opacity="0.85" fill="#000000" transform="translate(12.000000, 12.000000) scale(-1, 1) translate(-12.000000, -12.000000) "></path>
    </g>
</svg>