<?xml version="1.0" encoding="UTF-8"?>
<svg width="24px" height="24px" viewBox="0 0 24 24" version="1.1" xmlns="http://www.w3.org/2000/svg" xmlns:xlink="http://www.w3.org/1999/xlink">
    <title>Arrows/Custom/Actions/Open-new-tab</title>
    <g id="Arrows/Custom/Actions/Open-new-tab" stroke="none" stroke-width="1" fill="none" fill-rule="evenodd">
        <rect id="Rectangle-Copy-159" x="0" y="0" width="24" height="24"></rect>
        <path d="M18,10.82 C17.4477153,10.82 17,11.2677153 17,11.82 L17,19 C17,19.5522847 16.5522847,20 16,20 L5,20 C4.44771525,20 4,19.5522847 4,19 L4,8 C4,7.44771525 4.44771525,7 5,7 L12.18,7 C12.7322847,7 13.18,6.55228475 13.18,6 C13.18,5.44771525 12.7322847,5 12.18,5 L5,5 C3.34314575,5 2,6.34314575 2,8 L2,19 C2,20.6568542 3.34314575,22 5,22 L16,22 C17.6568542,22 19,20.6568542 19,19 L19,11.82 C19,11.2677153 18.5522847,10.82 18,10.82 Z M21.92,2.62 C21.8185251,2.37565068 21.6243493,2.18147492 21.38,2.08 C21.2597777,2.02875903 21.1306773,2.00157999 21,2 L15,2 C14.4477153,2 14,2.44771525 14,3 C14,3.55228475 14.4477153,4 15,4 L18.59,4 L8.29,14.29 C8.10068735,14.4777666 7.99420168,14.7333625 7.99420168,15 C7.99420168,15.2666375 8.10068735,15.5222334 8.29,15.71 C8.4777666,15.8993127 8.73336246,16.0057983 9,16.0057983 C9.26663754,16.0057983 9.5222334,15.8993127 9.71,15.71 L20,5.41 L20,9 C20,9.55228475 20.4477153,10 21,10 C21.5522847,10 22,9.55228475 22,9 L22,3 C21.99842,2.86932274 21.971241,2.74022231 21.92,2.62 Z" id="Shape" fill-opacity="0.85" fill="#000000"></path>
    </g>
</svg>