<?xml version="1.0" encoding="UTF-8"?>
<svg width="24px" height="25px" viewBox="0 0 24 25" version="1.1" xmlns="http://www.w3.org/2000/svg" xmlns:xlink="http://www.w3.org/1999/xlink">
    <title>FB292AE7-AD93-4948-A2EF-48293E087799@2x</title>
    <defs>
        <linearGradient x1="50%" y1="0%" x2="50%" y2="100%" id="linearGradient-1">
            <stop stop-color="#7F4DA0" offset="0%"></stop>
            <stop stop-color="#4DC2F0" offset="100%"></stop>
        </linearGradient>
        <path d="M23.1839952,9.05999997 L20.915996,8.30400022 L21.9839956,6.16800094 C22.2058724,5.70980287 22.1144839,5.16147197 21.7559957,4.8000014 L19.1999966,2.24400226 C18.8364207,1.8800597 18.2813152,1.78834662 17.819997,2.01600234 L15.6839977,3.08400198 L14.927998,0.816002742 C14.7643334,0.331397727 14.3114802,0.00380182346 13.7999984,-1.01746208e-06 L10.1999996,-1.01746208e-06 C9.68410067,-0.00132869503 9.22508646,0.327228845 9.05999997,0.816002742 L8.30400022,3.08400198 L6.16800094,2.01600234 C5.70980287,1.79412555 5.16147197,1.88551403 4.8000014,2.24400226 L2.24400226,4.8000014 C1.8800597,5.16357728 1.78834662,5.71868274 2.01600234,6.18000094 L3.08400198,8.31600022 L0.816002742,9.07199997 C0.331397727,9.23566457 0.00380182345,9.68851773 -1.01746438e-06,10.1999996 L-1.01746438e-06,13.7999984 C-0.00132869503,14.3158973 0.327228845,14.7749115 0.816002742,14.939998 L3.08400198,15.6959977 L2.01600234,17.831997 C1.79412555,18.2901951 1.88551403,18.838526 2.24400226,19.1999966 L4.8000014,21.7559957 C5.16357728,22.1199383 5.71868274,22.2116513 6.18000094,21.9839956 L8.31600022,20.915996 L9.07199997,23.1839952 C9.23708645,23.6727691 9.69610066,24.0013267 10.2119996,23.999999 L13.8119984,23.999999 C14.3278973,24.0013267 14.7869115,23.6727691 14.951998,23.1839952 L15.7079977,20.915996 L17.843997,21.9839956 C18.299045,22.200169 18.8406678,22.1090997 19.1999966,21.7559957 L21.7559957,19.1999966 C22.1199383,18.8364207 22.2116513,18.2813152 21.9839956,17.819997 L20.915996,15.6839977 L23.1839952,14.927998 C23.6686002,14.7643334 23.9961961,14.3114802 23.999999,13.7999984 L23.999999,10.1999996 C24.0013267,9.68410067 23.6727691,9.22508646 23.1839952,9.05999997 Z M21.5999958,12.9359987 L20.1599962,13.4159985 C19.4898005,13.6333904 18.9489838,14.1342961 18.6809506,14.785894 C18.4129174,15.4374919 18.4447461,16.1739537 18.7679967,16.7999974 L19.4519965,18.1679969 L18.1319969,19.4879965 L16.7999974,18.7679967 C16.1773431,18.4577847 15.4507229,18.4330023 14.8083796,18.7000697 C14.1660364,18.9671371 13.6711754,19.4997756 13.4519985,20.1599962 L12.9719987,21.5999958 L11.0639993,21.5999958 L10.5839995,20.1599962 C10.3666076,19.4898005 9.8657019,18.9489838 9.214104,18.6809506 C8.5625061,18.4129174 7.82604422,18.4447461 7.2000006,18.7679967 L5.83200106,19.4519965 L4.5120015,18.1319969 L5.23200126,16.7999974 C5.55525191,16.1739537 5.58708053,15.4374919 5.31904736,14.785894 C5.05101418,14.1342961 4.51019749,13.6333904 3.84000173,13.4159985 L2.40000221,12.9359987 L2.40000221,11.0639993 L3.84000173,10.5839995 C4.51019749,10.3666076 5.05101418,9.8657019 5.31904736,9.214104 C5.58708053,8.5625061 5.55525191,7.82604422 5.23200126,7.2000006 L4.54800149,5.86800104 L5.86800104,4.54800149 L7.2000006,5.23200126 C7.82604422,5.55525191 8.5625061,5.58708053 9.214104,5.31904736 C9.8657019,5.05101418 10.3666076,4.51019749 10.5839995,3.84000173 L11.0639993,2.40000221 L12.9359987,2.40000221 L13.4159985,3.84000173 C13.6333904,4.51019749 14.1342961,5.05101418 14.785894,5.31904736 C15.4374919,5.58708053 16.1739537,5.55525191 16.7999974,5.23200126 L18.1679969,4.54800149 L19.4879965,5.86800104 L18.7679967,7.2000006 C18.4577847,7.82265487 18.4330023,8.5492751 18.7000697,9.19161833 C18.9671371,9.83396156 19.4997756,10.3288226 20.1599962,10.5479995 L21.5999958,11.0279993 L21.5999958,12.9359987 Z M11.999999,7.2000006 C9.34903307,7.2000006 7.2000006,9.34903307 7.2000006,11.999999 C7.2000006,14.6509649 9.34903307,16.7999974 11.999999,16.7999974 C14.6509649,16.7999974 16.7999974,14.6509649 16.7999974,11.999999 C16.7999974,10.7269603 16.2942847,9.50606189 15.3941104,8.60588757 C14.4939361,7.70571326 13.2730377,7.2000006 11.999999,7.2000006 Z M11.999999,14.3999982 C10.674516,14.3999982 9.59999979,13.3254819 9.59999979,11.999999 C9.59999979,10.674516 10.674516,9.59999979 11.999999,9.59999979 C13.3254819,9.59999979 14.3999982,10.674516 14.3999982,11.999999 C14.3999982,13.3254819 13.3254819,14.3999982 11.999999,14.3999982 Z" id="path-2"></path>
    </defs>
    <g id="Templates" stroke="none" stroke-width="1" fill="none" fill-rule="evenodd">
        <g id="Template-Dashboard-" transform="translate(-20.000000, -503.000000)">
            <g id="Shape" transform="translate(20.000000, 503.320000)">
                <use fill="#FFFFFF" xlink:href="#path-2"></use>
                <use fill="url(#linearGradient-1)" xlink:href="#path-2"></use>
            </g>
        </g>
    </g>
</svg>