<svg id="dashboard" fill="currentColor" viewBox="0 0 24 24" version="1.1" xmlns="http://www.w3.org/2000/svg" xmlns:xlink="http://www.w3.org/1999/xlink"><path d="M9.71428571,13.1428571 L1.71428571,13.1428571 C1.08310314,13.1428571 0.571428571,13.6545317 0.571428571,14.2857143 L0.571428571,22.2857143 C0.571428571,22.9168969 1.08310314,23.4285714 1.71428571,23.4285714 L9.71428571,23.4285714 C10.3454683,23.4285714 10.8571429,22.9168969 10.8571429,22.2857143 L10.8571429,14.2857143 C10.8571429,13.6545317 10.3454683,13.1428571 9.71428571,13.1428571 Z M8.57142857,21.1428571 L2.85714286,21.1428571 L2.85714286,15.4285714 L8.57142857,15.4285714 L8.57142857,21.1428571 Z M22.2857143,0.571428571 L14.2857143,0.571428571 C13.6545317,0.571428571 13.1428571,1.08310314 13.1428571,1.71428571 L13.1428571,9.71428571 C13.1428571,10.3454683 13.6545317,10.8571429 14.2857143,10.8571429 L22.2857143,10.8571429 C22.9168969,10.8571429 23.4285714,10.3454683 23.4285714,9.71428571 L23.4285714,1.71428571 C23.4285714,1.08310314 22.9168969,0.571428571 22.2857143,0.571428571 Z M21.1428571,8.57142857 L15.4285714,8.57142857 L15.4285714,2.85714286 L21.1428571,2.85714286 L21.1428571,8.57142857 Z M22.2857143,13.1428571 L14.2857143,13.1428571 C13.6545317,13.1428571 13.1428571,13.6545317 13.1428571,14.2857143 L13.1428571,22.2857143 C13.1428571,22.9168969 13.6545317,23.4285714 14.2857143,23.4285714 L22.2857143,23.4285714 C22.9168969,23.4285714 23.4285714,22.9168969 23.4285714,22.2857143 L23.4285714,14.2857143 C23.4285714,13.6545317 22.9168969,13.1428571 22.2857143,13.1428571 Z M21.1428571,21.1428571 L15.4285714,21.1428571 L15.4285714,15.4285714 L21.1428571,15.4285714 L21.1428571,21.1428571 Z M9.71428571,0.571428571 L1.71428571,0.571428571 C1.08310314,0.571428571 0.571428571,1.08310314 0.571428571,1.71428571 L0.571428571,9.71428571 C0.571428571,10.3454683 1.08310314,10.8571429 1.71428571,10.8571429 L9.71428571,10.8571429 C10.3454683,10.8571429 10.8571429,10.3454683 10.8571429,9.71428571 L10.8571429,1.71428571 C10.8571429,1.08310314 10.3454683,0.571428571 9.71428571,0.571428571 Z M8.57142857,8.57142857 L2.85714286,8.57142857 L2.85714286,2.85714286 L8.57142857,2.85714286 L8.57142857,8.57142857 Z" id="path-dashboard"></path></svg>
