<?xml version="1.0" encoding="UTF-8"?>
<svg width="24px" height="25px" viewBox="0 0 24 25" version="1.1" xmlns="http://www.w3.org/2000/svg" xmlns:xlink="http://www.w3.org/1999/xlink">
    <title>E55A701B-B5B2-46C5-860E-CDF209038794@2x</title>
    <defs>
        <linearGradient x1="50%" y1="0%" x2="50%" y2="100%" id="linearGradient-1">
            <stop stop-color="#80499D" offset="0%"></stop>
            <stop stop-color="#4DC2EF" offset="100%"></stop>
        </linearGradient>
        <path d="M8.052,6.84601622 L10.8,4.08601622 L10.8,15.5940162 C10.8,16.2567579 11.3372583,16.7940162 12,16.7940162 C12.6627417,16.7940162 13.2,16.2567579 13.2,15.5940162 L13.2,4.08601622 L15.948,6.84601622 C16.1733199,7.0731914 16.480035,7.20097421 16.8,7.20097421 C17.119965,7.20097421 17.4266801,7.0731914 17.652,6.84601622 C17.8791752,6.6206963 18.006958,6.31398126 18.006958,5.99401622 C18.006958,5.67405117 17.8791752,5.36733614 17.652,5.14201622 L12.852,0.342016216 C12.7378755,0.232767461 12.6033016,0.147129482 12.456,0.0900162163 C12.1638464,-0.0300054054 11.8361536,-0.0300054054 11.544,0.0900162163 C11.3966984,0.147129482 11.2621245,0.232767461 11.148,0.342016216 L6.348,5.14201622 C6.04360971,5.4464065 5.92473177,5.890065 6.03614634,6.30586987 C6.14756092,6.72167473 6.47234149,7.0464553 6.88814635,7.15786987 C7.30395121,7.26928445 7.74760972,7.15040651 8.052,6.84601622 Z M22.8,11.9940162 C22.1372583,11.9940162 21.6,12.5312745 21.6,13.1940162 L21.6,20.3940162 C21.6,21.0567579 21.0627417,21.5940162 20.4,21.5940162 L3.6,21.5940162 C2.9372583,21.5940162 2.4,21.0567579 2.4,20.3940162 L2.4,13.1940162 C2.4,12.5312745 1.8627417,11.9940162 1.2,11.9940162 C0.5372583,11.9940162 0,12.5312745 0,13.1940162 L0,20.3940162 C0,22.3822413 1.6117749,23.9940162 3.6,23.9940162 L20.4,23.9940162 C22.3882251,23.9940162 24,22.3822413 24,20.3940162 L24,13.1940162 C24,12.5312745 23.4627417,11.9940162 22.8,11.9940162 Z" id="path-2"></path>
    </defs>
    <g id="Templates" stroke="none" stroke-width="1" fill="none" fill-rule="evenodd">
        <g id="Template-Dashboard-" transform="translate(-20.000000, -431.000000)">
            <g id="Shape" transform="translate(20.000000, 431.320000)">
                <use fill="#FFFFFF" xlink:href="#path-2"></use>
                <use fill="url(#linearGradient-1)" xlink:href="#path-2"></use>
            </g>
        </g>
    </g>
</svg>