<?xml version="1.0" encoding="UTF-8"?>
<svg width="24px" height="25px" viewBox="0 0 24 25" version="1.1" xmlns="http://www.w3.org/2000/svg" xmlns:xlink="http://www.w3.org/1999/xlink">
    <title>F6B875A1-0F19-475A-84F8-D09726C27F49@2x</title>
    <defs>
        <linearGradient x1="50%" y1="0%" x2="50%" y2="100%" id="linearGradient-1">
            <stop stop-color="#834399" offset="0%"></stop>
            <stop stop-color="#4ACAF5" offset="100%"></stop>
        </linearGradient>
        <path d="M10,13 L3,13 C2.44771525,13 2,13.4477153 2,14 L2,21 C2,21.5522847 2.44771525,22 3,22 L10,22 C10.5522847,22 11,21.5522847 11,21 L11,14 C11,13.4477153 10.5522847,13 10,13 Z M9,20 L4,20 L4,15 L9,15 L9,20 Z M21,2 L14,2 C13.4477153,2 13,2.44771525 13,3 L13,10 C13,10.5522847 13.4477153,11 14,11 L21,11 C21.5522847,11 22,10.5522847 22,10 L22,3 C22,2.44771525 21.5522847,2 21,2 Z M20,9 L15,9 L15,4 L20,4 L20,9 Z M21,13 L14,13 C13.4477153,13 13,13.4477153 13,14 L13,21 C13,21.5522847 13.4477153,22 14,22 L21,22 C21.5522847,22 22,21.5522847 22,21 L22,14 C22,13.4477153 21.5522847,13 21,13 Z M20,20 L15,20 L15,15 L20,15 L20,20 Z M10,2 L3,2 C2.44771525,2 2,2.44771525 2,3 L2,10 C2,10.5522847 2.44771525,11 3,11 L10,11 C10.5522847,11 11,10.5522847 11,10 L11,3 C11,2.44771525 10.5522847,2 10,2 Z M9,9 L4,9 L4,4 L9,4 L9,9 Z" id="path-2"></path>
    </defs>
    <g id="Templates" stroke="none" stroke-width="1" fill="none" fill-rule="evenodd">
        <g id="Template-Dashboard-" transform="translate(-20.000000, -145.000000)">
            <g id="Icons/Dashboard" transform="translate(20.000000, 145.500000)">
                <rect id="Rectangle-Copy-260" x="0" y="0" width="24" height="24"></rect>
                <mask id="mask-3" fill="white">
                    <use xlink:href="#path-2"></use>
                </mask>
                <g id="Shape">
                    <use fill="#5C356B" xlink:href="#path-2"></use>
                    <use fill="url(#linearGradient-1)" xlink:href="#path-2"></use>
                </g>
            </g>
        </g>
    </g>
</svg>