<svg id="filter" fill="currentColor" viewBox="0 0 26 24" version="1.1" xmlns="http://www.w3.org/2000/svg" xmlns:xlink="http://www.w3.org/1999/xlink"><path d="M7.22178218,6 L6.19009901,6 L6.19009901,3 C6.19009901,2.44771525 5.72819872,2 5.15841584,2 C4.58863296,2 4.12673267,2.44771525 4.12673267,3 L4.12673267,6 L3.0950495,6 C2.52526662,6 2.06336634,6.44771525 2.06336634,7 C2.06336634,7.55228475 2.52526662,8 3.0950495,8 L7.22178218,8 C7.79156506,8 8.25346535,7.55228475 8.25346535,7 C8.25346535,6.44771525 7.79156506,6 7.22178218,6 Z M5.15841584,10 C4.58863296,10 4.12673267,10.4477153 4.12673267,11 L4.12673267,21 C4.12673267,21.5522847 4.58863296,22 5.15841584,22 C5.72819872,22 6.19009901,21.5522847 6.19009901,21 L6.19009901,11 C6.19009901,10.4477153 5.72819872,10 5.15841584,10 Z M12.380198,18 C11.8104151,18 11.3485149,18.4477153 11.3485149,19 L11.3485149,21 C11.3485149,21.5522847 11.8104151,22 12.380198,22 C12.9499809,22 13.4118812,21.5522847 13.4118812,21 L13.4118812,19 C13.4118812,18.4477153 12.9499809,18 12.380198,18 Z M21.6653465,10 L20.6336634,10 L20.6336634,3 C20.6336634,2.44771525 20.1717631,2 19.6019802,2 C19.0321973,2 18.570297,2.44771525 18.570297,3 L18.570297,10 L17.5386139,10 C16.968831,10 16.5069307,10.4477153 16.5069307,11 C16.5069307,11.5522847 16.968831,12 17.5386139,12 L21.6653465,12 C22.2351294,12 22.6970297,11.5522847 22.6970297,11 C22.6970297,10.4477153 22.2351294,10 21.6653465,10 Z M19.6019802,14 C19.0321973,14 18.570297,14.4477153 18.570297,15 L18.570297,21 C18.570297,21.5522847 19.0321973,22 19.6019802,22 C20.1717631,22 20.6336634,21.5522847 20.6336634,21 L20.6336634,15 C20.6336634,14.4477153 20.1717631,14 19.6019802,14 Z M14.4435644,14 L13.4118812,14 L13.4118812,3 C13.4118812,2.44771525 12.9499809,2 12.380198,2 C11.8104151,2 11.3485149,2.44771525 11.3485149,3 L11.3485149,14 L10.3168317,14 C9.7470488,14 9.28514851,14.4477153 9.28514851,15 C9.28514851,15.5522847 9.7470488,16 10.3168317,16 L14.4435644,16 C15.0133472,16 15.4752475,15.5522847 15.4752475,15 C15.4752475,14.4477153 15.0133472,14 14.4435644,14 Z" id="path-filter"></path></svg>
