<svg width="59" height="64" viewBox="0 0 59 64" fill="none" xmlns="http://www.w3.org/2000/svg">
<path d="M19.4995 30.0002C19.8149 19.5413 16.8652 15.9022 5.4995 13.0002C5.8435 24.7255 9.22515 28.0189 19.4995 30.0002ZM19.4995 30.0002L29.9995 43.0002M29.8752 24.022C36.7023 16.0924 36.7 11.4079 29.6935 2C22.5819 11.3288 23.1374 16.0163 29.8752 24.022ZM29.8752 24.022L29.9995 43.0002M39.4995 30.0002C39.1841 19.5413 42.156 15.9022 53.5217 13.0002C53.1777 24.7255 49.7739 28.0189 39.4995 30.0002ZM39.4995 30.0002L29.9995 43.0002M19.4998 47C17.5199 36.7254 13.8456 33.8196 2.12036 33.474C5.02076 44.84 9.0409 47.314 19.4998 47ZM19.4998 47L29.9995 62.0002M39.4997 47.5C41.4796 37.2254 45.1756 34.3196 56.9008 33.974C54.0004 45.34 49.9586 47.814 39.4997 47.5ZM39.4997 47.5L29.9995 62.0002M29.9995 62.0002V43.0002" stroke="black" stroke-width="2"/>
</svg>
