<svg viewBox="0 0 24 24" version="1.1" xmlns="http://www.w3.org/2000/svg" xmlns:xlink="http://www.w3.org/1999/xlink" id="profile" fill="currentColor">
    <path d="M15.7133875,12.7092764 C17.7329422,11.1290677 18.5235657,8.44956553 17.6828355,6.03462029 C16.8421053,3.61967504 14.5547819,2 11.9850991,2 C9.41541638,2 7.12809299,3.61967504 6.28736276,6.03462029 C5.44663254,8.44956553 6.23725606,11.1290677 8.25681073,12.7092764 C4.81703446,14.0798266 2.41477063,17.2217521 2.00614933,20.8845286 C1.94509854,21.4364928 2.34552935,21.9331683 2.90053658,21.9938844 C3.45554381,22.0546004 3.95495751,21.6563651 4.0160083,21.1044009 C4.47288054,17.0594914 7.91240824,14.0015544 12.0051977,14.0015544 C16.0979872,14.0015544 19.5375149,17.0594914 19.9943871,21.1044009 C20.0509798,21.6130405 20.4847608,21.9969888 20.9993166,21.9938844 L21.1098588,21.9938844 C21.6581896,21.9311388 22.0530094,21.44032 21.9941968,20.8945228 C21.5836002,17.2209655 19.1678471,14.0727193 15.7133875,12.7092764 L15.7133875,12.7092764 Z M12,12 C9.790861,12 8,10.209139 8,8 C8,5.790861 9.790861,4 12,4 C14.209139,4 16,5.790861 16,8 C16,9.06086596 15.5785726,10.0782816 14.8284271,10.8284271 C14.0782816,11.5785726 13.060866,12 12,12 Z" id="path-profile">
    </path>
</svg>
